HIERARCHY
ROOT Hips
{
  OFFSET 53.2189 93.6689 9.14136
  CHANNELS 6 Xposition Yposition Zposition Zrotation Xrotation Yrotation
  JOINT spine
  {
    OFFSET 0 7.4756 0.429885
    CHANNELS 3 Zrotation Xrotation Yrotation
    JOINT spine1
    {
      OFFSET 0 9.92301 0
      CHANNELS 3 Zrotation Xrotation Yrotation
      JOINT spine2
      {
        OFFSET 0 9.50804 0
        CHANNELS 3 Zrotation Xrotation Yrotation
        JOINT Neck
        {
          OFFSET 0 24.4111 1.16384
          CHANNELS 3 Zrotation Xrotation Yrotation
          JOINT Head
          {
            OFFSET 0 7.37523 0
            CHANNELS 3 Zrotation Xrotation Yrotation
            End Site
            {
              OFFSET 0 17.8522 -5.88741
            }
          }
        }
        JOINT RightShoulder
        {
          OFFSET -4.00356 10.2679 -0.557468
          CHANNELS 3 Zrotation Xrotation Yrotation
          JOINT RightArm
          {
            OFFSET 0 13.4673 0
            CHANNELS 3 Zrotation Xrotation Yrotation
            JOINT RightArmRoll
            {
              OFFSET 0 6.79858 0
              CHANNELS 3 Zrotation Xrotation Yrotation
              JOINT RightForeArm
              {
                OFFSET 0 19.8018 0
                CHANNELS 3 Zrotation Xrotation Yrotation
                JOINT RightForeArmRoll
                {
                  OFFSET 0 7.62906 0
                  CHANNELS 3 Zrotation Xrotation Yrotation
                  JOINT RightHand
                  {
                    OFFSET 0 15.3098 0
                    CHANNELS 3 Zrotation Xrotation Yrotation
                    End Site
                    {
                      OFFSET 0 0 0
                    }
                  }
                }
              }
            }
          }
        }
        JOINT LeftShoulder
        {
          OFFSET 4.00356 10.2679 -0.557468
          CHANNELS 3 Zrotation Xrotation Yrotation
          JOINT LeftArm
          {
            OFFSET 0 13.4673 0
            CHANNELS 3 Zrotation Xrotation Yrotation
            JOINT LeftArmRoll
            {
              OFFSET 0 6.79858 0
              CHANNELS 3 Zrotation Xrotation Yrotation
              JOINT LeftForeArm
              {
                OFFSET 0 19.8018 0
                CHANNELS 3 Zrotation Xrotation Yrotation
                JOINT LeftForeArmRoll
                {
                  OFFSET 0 7.62906 0
                  CHANNELS 3 Zrotation Xrotation Yrotation
                  JOINT LeftHand
                  {
                    OFFSET 0 15.3098 0
                    CHANNELS 3 Zrotation Xrotation Yrotation
                    End Site
                    {
                      OFFSET 0 0 0
                    }
                  }
                }
              }
            }
          }
        }
      }
    }
  }
  JOINT RightUpLeg
  {
    OFFSET -6.62609 -1.21505 -1.01927
    CHANNELS 3 Zrotation Xrotation Yrotation
    JOINT RightUpLegRoll
    {
      OFFSET 0 17.9517 0
      CHANNELS 3 Zrotation Xrotation Yrotation
      JOINT RightLeg
      {
        OFFSET 0 -22.2304 0
        CHANNELS 3 Zrotation Xrotation Yrotation
        JOINT RightLegRoll
        {
          OFFSET 0 22.3032 0
          CHANNELS 3 Zrotation Xrotation Yrotation
          JOINT RightFoot
          {
            OFFSET 0 18.5636 0
            CHANNELS 3 Zrotation Xrotation Yrotation
            JOINT RightToeBase
            {
              OFFSET 0 15.5183 0
              CHANNELS 3 Zrotation Xrotation Yrotation
              End Site
              {
                OFFSET 0.00657761 7.51539 -0.866263
              }
            }
          }
        }
      }
    }
  }
  JOINT LeftUpLeg
  {
    OFFSET 6.62609 -1.21505 -1.01927
    CHANNELS 3 Zrotation Xrotation Yrotation
    JOINT LeftUpLegRoll
    {
      OFFSET 0 17.9518 0
      CHANNELS 3 Zrotation Xrotation Yrotation
      JOINT LeftLeg
      {
        OFFSET 0 22.2303 0
        CHANNELS 3 Zrotation Xrotation Yrotation
        JOINT LeftLegRoll
        {
          OFFSET 0 22.5093 0
          CHANNELS 3 Zrotation Xrotation Yrotation
          JOINT LeftFoot
          {
            OFFSET 0 18.3575 0
            CHANNELS 3 Zrotation Xrotation Yrotation
            JOINT LeftToeBase
            {
              OFFSET 0 15.5183 0
              CHANNELS 3 Zrotation Xrotation Yrotation
              End Site
              {
                OFFSET -0.029478 7.51538 -0.866263
              }
            }
          }
        }
      }
    }
  }
}
MOTION
Frames: 7
Frame Time: 0.00208333
52.1655 93.7427 7.55107 -2.572 -3.45205 1.91868 0.0357857 -2.11178 -0.169355 0.0633187 -0.220829 -0.34196 0.0674324 1.42423 -0.343096 -3.21364 7.73573 -4.38369 7.57202 8.04097 -4.9554 53.734 -7.83494 -4.70052 127.95 36.3244 -42.383 -4.16681e-007 -4.46333e-007 -1.64228e-006 2.31553 77.6047 -4.5212 1.07506e-006 2.23166e-006 -3.00077 8.02985 -4.95139 0.69765 -62.5845 -1.15968 1.13566 -103.244 81.0761 23.4942 -3.20827e-005 7.11662e-007 6.01509e-006 -18.1728 70.4433 17.6228 7.63816e-007 1.85589e-008 2.99997 -8.02985 -4.9514 -0.697658 -176.963 -2.68546 -2.41888 180 7.01558e-015 178.973 177.995 4.98329 179.785 8.90174e-007 -2.0949e-006 0.03837 -18.3502 67.6876 19.2812 8.13649 25.2327 -3.48774 -175.924 -0.253838 1.30145 4.54188e-006 -4.6773e-006 -1.06839 -2.21346 -8.08145 0.0765513 -4.10681e-007 -1.1432e-006 -0.1368 19.5774 69.1987 -20.5817 -8.13649 25.2327 3.48774 
52.1527 93.7456 7.5661 -2.59 -3.46429 1.96955 0.0340308 -2.10117 -0.173976 0.058881 -0.199598 -0.351038 0.0631027 1.44546 -0.352104 -3.07351 7.58963 -4.42761 7.46195 8.12554 -4.97368 53.9522 -7.86304 -4.72743 127.596 35.7684 -42.5813 -4.16681e-007 -4.46333e-007 -1.64228e-006 1.28397 78.0043 -3.69136 1.07506e-006 2.23166e-006 -3.00076 8.02985 -4.95139 0.69765 -62.356 -1.13496 1.09716 -105.114 81.5899 25.0933 -3.20827e-005 7.11662e-007 6.01509e-006 -17.8073 69.5864 17.0998 7.63816e-007 1.85589e-008 2.99997 -8.02985 -4.9514 -0.697658 -176.928 -2.70347 -2.44067 180 7.01558e-015 178.973 178.007 4.98728 179.784 8.90174e-007 -2.0949e-006 0.0383385 -18.3521 67.6896 19.2831 8.13649 25.2327 -3.48774 -175.897 -0.24512 1.28782 4.54188e-006 -4.6773e-006 -1.0685 -2.21222 -8.10406 0.0770026 -4.10681e-007 -1.1432e-006 -0.137693 19.5889 69.2127 -20.5943 -8.13649 25.2327 3.48774 
52.1583 93.7422 7.56369 -2.60842 -3.47549 2.02108 0.0324532 -2.09129 -0.178804 0.0548977 -0.179837 -0.360547 0.0592325 1.46522 -0.36155 -2.93527 7.45497 -4.47008 7.35299 8.20241 -4.99068 54.1612 -7.89151 -4.75413 127.253 35.2158 -42.7805 -4.16681e-007 -4.46333e-007 -1.64228e-006 0.214121 78.386 -2.81957 1.07506e-006 2.23166e-006 -3.00075 8.02985 -4.95139 0.69765 -62.1308 -1.10864 1.05785 -107.199 82.0897 26.9066 -3.20827e-005 7.11662e-007 6.01509e-006 -17.4397 68.71 16.5804 7.63816e-007 1.85589e-008 2.99997 -8.02985 -4.9514 -0.697658 -176.894 -2.72031 -2.46264 180 7.01558e-015 178.974 178.018 4.99108 179.784 8.90174e-007 -2.0949e-006 0.0382945 -18.354 67.6913 19.2848 8.13649 25.2327 -3.48774 -175.87 -0.234699 1.27352 4.54188e-006 -4.6773e-006 -1.06856 -2.21148 -8.12741 0.0773825 -4.10681e-007 -1.1432e-006 -0.138582 19.601 69.2271 -20.6073 -8.13649 25.2327 3.48774 
52.1491 93.7433 7.55708 -2.62732 -3.48551 2.07314 0.0311134 -2.08228 -0.183861 0.0515142 -0.161824 -0.370538 0.0559681 1.48323 -0.371488 -2.79999 7.33432 -4.51057 7.24581 8.26992 -5.00607 54.3596 -7.91998 -4.7803 126.924 34.667 -42.9793 -4.16681e-007 -4.46333e-007 -1.64228e-006 -0.886531 78.7479 -1.91195 1.07506e-006 2.23166e-006 -3.00075 8.02985 -4.95139 0.69765 -61.9099 -1.08039 1.01765 -109.528 82.5736 28.9613 -3.20827e-005 7.11662e-007 6.01509e-006 -17.068 67.8136 16.0634 7.63816e-007 1.85589e-008 2.99997 -8.02985 -4.9514 -0.697658 -176.859 -2.73589 -2.48481 180 7.01558e-015 178.974 178.029 4.9945 179.783 8.90174e-007 -2.0949e-006 0.0382306 -18.3555 67.6927 19.2862 8.13649 25.2327 -3.48774 -175.841 -0.222371 1.25842 4.54188e-006 -4.6773e-006 -1.06857 -2.21132 -8.15172 0.077678 -4.10681e-007 -1.1432e-006 -0.139465 19.6134 69.2419 -20.6209 -8.13649 25.2327 3.48774 
52.1492 93.7419 7.56095 -2.64677 -3.49425 2.12556 0.0300719 -2.07429 -0.189171 0.0488759 -0.145839 -0.381062 0.0534554 1.49922 -0.381972 -2.66874 7.2302 -4.54857 7.14108 8.32639 -5.01952 54.546 -7.94813 -4.80561 126.608 34.1228 -43.1766 -4.16681e-007 -4.46333e-007 -1.64228e-006 -2.00873 79.0885 -0.976347 1.07506e-006 2.23166e-006 -3.00074 8.02985 -4.95139 0.69765 -61.6943 -1.0499 0.976476 -112.128 83.0391 31.2872 -3.20827e-005 7.11662e-007 6.01509e-006 -16.6905 66.8964 15.5476 7.63816e-007 1.85589e-008 2.99997 -8.02985 -4.9514 -0.697658 -176.824 -2.75014 -2.50717 180 7.01558e-015 178.974 178.04 4.99732 179.782 8.90174e-007 -2.0949e-006 0.0381399 -18.3568 67.6937 19.2872 8.13649 25.2327 -3.48774 -175.812 -0.207931 1.24241 4.54188e-006 -4.6773e-006 -1.06852 -2.21184 -8.17716 0.0778764 -4.10681e-007 -1.1432e-006 -0.140342 19.6264 69.2573 -20.635 -8.13649 25.2327 3.48774 
52.1593 93.7433 7.56774 -2.66682 -3.50159 2.17821 0.0293892 -2.06745 -0.194756 0.0471279 -0.132163 -0.392169 0.0518402 1.51289 -0.393054 -2.54259 7.14516 -4.58357 7.03947 8.37016 -5.03069 54.719 -7.9756 -4.82976 126.307 33.5836 -43.3713 -4.16681e-007 -4.46333e-007 -1.64228e-006 -3.1413 79.4061 -0.0225286 1.07506e-006 2.23166e-006 -3.00073 8.02985 -4.95139 0.69765 -61.4851 -1.01683 0.934238 -115.035 83.4838 33.9173 -3.20827e-005 7.11662e-007 6.01509e-006 -16.3059 65.9578 15.0319 7.63816e-007 1.85589e-008 2.99997 -8.02985 -4.9514 -0.697658 -176.788 -2.76298 -2.52972 180 7.01558e-015 178.974 178.05 4.99941 179.781 8.90174e-007 -2.0949e-006 0.0380152 -18.3575 67.6942 19.2878 8.13649 25.2327 -3.48774 -175.782 -0.191177 1.22537 4.54188e-006 -4.6773e-006 -1.06842 -2.21314 -8.20394 0.0779648 -4.10681e-007 -1.1432e-006 -0.141212 19.6401 69.2733 -20.6497 -8.13649 25.2327 3.48774 
52.1542 93.7453 7.56763 -2.68791 -3.50704 2.23199 0.0290734 -2.06181 -0.200682 0.0462777 -0.120893 -0.404009 0.0511319 1.52416 -0.404884 -2.4193 7.07846 -4.61636 6.93942 8.40088 -5.0399 54.8792 -8.00316 -4.85333 126.024 33.0467 -43.5689 -4.16681e-007 -4.46333e-007 -1.64228e-006 -4.30199 79.7013 0.964709 1.07506e-006 2.23166e-006 -3.00072 8.02985 -4.95139 0.69765 -61.2795 -0.981233 0.890655 -118.313 83.9031 36.9146 -3.20827e-005 7.11662e-007 6.01509e-006 -15.9144 64.9913 14.5129 7.63816e-007 1.85589e-008 2.99997 -8.02985 -4.9514 -0.697658 -176.752 -2.77384 -2.55293 180 7.01558e-015 178.974 178.06 5.00106 179.78 8.90174e-007 -2.0949e-006 0.0378676 -18.3581 67.6943 19.2882 8.13649 25.2327 -3.48774 -175.75 -0.171252 1.20703 4.54188e-006 -4.6773e-006 -1.06824 -2.21524 -8.23229 0.07794 -4.10681e-007 -1.1432e-006 -0.142075 19.6543 69.29 -20.6651 -8.13649 25.2327 3.48774 
